<?xml version="1.0" encoding="UTF-8" standalone="no"?>
<svg width="233px" height="25px" viewBox="0 0 233 25" version="1.1" xmlns="http://www.w3.org/2000/svg" xmlns:xlink="http://www.w3.org/1999/xlink" xmlns:sketch="http://www.bohemiancoding.com/sketch/ns">
    <!-- Generator: Sketch 3.5.1 (25234) - http://www.bohemiancoding.com/sketch -->
    <title>logo</title>
    <desc>Created with Sketch.</desc>
    <defs></defs>
    <g id="Page-1" stroke="none" stroke-width="1" fill="none" fill-rule="evenodd" sketch:type="MSPage">
        <g id="logo" sketch:type="MSLayerGroup">
            <circle id="Oval-1" fill="#50E3C2" sketch:type="MSShapeGroup" cx="12.5" cy="12.5" r="12.5"></circle>
            <circle id="Oval-1" fill="#8C7DB7" sketch:type="MSShapeGroup" cx="40.5" cy="12.5" r="12.5"></circle>
            <circle id="Oval-1" fill="#89B58A" sketch:type="MSShapeGroup" cx="68.5" cy="12.5" r="12.5"></circle>
            <circle id="Oval-1" fill="#F1A636" sketch:type="MSShapeGroup" cx="96.5" cy="12.5" r="12.5"></circle>
            <circle id="Oval-1" fill="#E06666" sketch:type="MSShapeGroup" cx="124.5" cy="12.5" r="12.5"></circle>
            <path d="M167.582031,16.21875 C166.863278,17.7734453 165.777351,18.5507812 164.324219,18.5507812 C163.714841,18.5507812 163.191408,18.4218763 162.753906,18.1640625 C162.308592,17.9453114 161.94922,17.660158 161.675781,17.3085938 C161.339842,16.9414044 161.117188,16.4609405 161.007812,15.8671875 C160.882812,15.2734345 160.820312,14.1367271 160.820312,12.4570312 C160.820312,10.7773354 160.882812,9.63281555 161.007812,9.0234375 C161.117188,8.44530961 161.339842,7.97265809 161.675781,7.60546875 C161.94922,7.25390449 162.308592,6.96093867 162.753906,6.7265625 C163.191408,6.49999887 163.714841,6.37890633 164.324219,6.36328125 C165.152348,6.37890633 165.855466,6.6171852 166.433594,7.078125 C166.988284,7.56250242 167.371093,8.14843406 167.582031,8.8359375 L170.324219,8.8359375 C170.05078,7.40624285 169.394536,6.20703609 168.355469,5.23828125 C167.316401,4.27733895 165.972664,3.78906258 164.324219,3.7734375 C162.980462,3.78906258 161.859379,4.10937188 160.960938,4.734375 C160.04687,5.35156559 159.382815,6.05468355 158.96875,6.84375 C158.710936,7.25781457 158.519532,7.80077789 158.394531,8.47265625 C158.277343,9.14453461 158.21875,10.4726463 158.21875,12.4570312 C158.21875,14.410166 158.277343,15.7304653 158.394531,16.4179688 C158.457032,16.7851581 158.535156,17.0898425 158.628906,17.3320312 C158.730469,17.5664074 158.843749,17.8124987 158.96875,18.0703125 C159.382815,18.8593789 160.04687,19.5546845 160.960938,20.15625 C161.859379,20.7812531 162.980462,21.1093748 164.324219,21.140625 C165.808601,21.140625 167.093745,20.7187542 168.179688,19.875 C169.23438,19.0234332 169.949217,17.8046954 170.324219,16.21875 L167.582031,16.21875 Z M180.929688,16.21875 C180.210934,17.7734453 179.125007,18.5507812 177.671875,18.5507812 C177.062497,18.5507812 176.539065,18.4218763 176.101562,18.1640625 C175.656248,17.9453114 175.296876,17.660158 175.023438,17.3085938 C174.687498,16.9414044 174.464844,16.4609405 174.355469,15.8671875 C174.230468,15.2734345 174.167969,14.1367271 174.167969,12.4570312 C174.167969,10.7773354 174.230468,9.63281555 174.355469,9.0234375 C174.464844,8.44530961 174.687498,7.97265809 175.023438,7.60546875 C175.296876,7.25390449 175.656248,6.96093867 176.101562,6.7265625 C176.539065,6.49999887 177.062497,6.37890633 177.671875,6.36328125 C178.500004,6.37890633 179.203122,6.6171852 179.78125,7.078125 C180.33594,7.56250242 180.718749,8.14843406 180.929688,8.8359375 L183.671875,8.8359375 C183.398436,7.40624285 182.742193,6.20703609 181.703125,5.23828125 C180.664057,4.27733895 179.320321,3.78906258 177.671875,3.7734375 C176.328118,3.78906258 175.207036,4.10937188 174.308594,4.734375 C173.394527,5.35156559 172.730471,6.05468355 172.316406,6.84375 C172.058592,7.25781457 171.867188,7.80077789 171.742188,8.47265625 C171.624999,9.14453461 171.566406,10.4726463 171.566406,12.4570312 C171.566406,14.410166 171.624999,15.7304653 171.742188,16.4179688 C171.804688,16.7851581 171.882812,17.0898425 171.976562,17.3320312 C172.078126,17.5664074 172.191406,17.8124987 172.316406,18.0703125 C172.730471,18.8593789 173.394527,19.5546845 174.308594,20.15625 C175.207036,20.7812531 176.328118,21.1093748 177.671875,21.140625 C179.156257,21.140625 180.441401,20.7187542 181.527344,19.875 C182.582037,19.0234332 183.296873,17.8046954 183.671875,16.21875 L180.929688,16.21875 Z M185.710938,16.8515625 L184.011719,18.796875 C185.83204,20.3593828 188.0078,21.140625 190.539062,21.140625 C194.453145,21.0937498 196.453125,19.4375163 196.539062,16.171875 C196.539062,14.9609314 196.16016,13.8984421 195.402344,12.984375 C194.636715,12.0546829 193.453133,11.4804698 191.851562,11.2617188 C191.039058,11.1601557 190.39844,11.0703129 189.929688,10.9921875 C189.085933,10.8359367 188.472658,10.5546895 188.089844,10.1484375 C187.707029,9.74999801 187.515625,9.30468996 187.515625,8.8125 C187.53125,7.9921834 187.816403,7.37500207 188.371094,6.9609375 C188.902346,6.56249801 189.566402,6.36328125 190.363281,6.36328125 C191.902351,6.39453141 193.312494,6.83202703 194.59375,7.67578125 L196.035156,5.54296875 C194.464836,4.41015059 192.617198,3.82031273 190.492188,3.7734375 C188.726554,3.78906258 187.363286,4.24999547 186.402344,5.15625 C185.410151,6.07031707 184.914062,7.27343004 184.914062,8.765625 C184.914062,10.0078187 185.30859,11.0624957 186.097656,11.9296875 C186.863285,12.7734417 187.980461,13.316405 189.449219,13.5585938 C190.269535,13.6757818 191.023434,13.7812495 191.710938,13.875 C193.210945,14.1328138 193.953125,14.8984311 193.9375,16.171875 C193.90625,17.7265703 192.781261,18.5195311 190.5625,18.5507812 C188.687491,18.5351562 187.070319,17.9687556 185.710938,16.8515625 L185.710938,16.8515625 Z M205.023438,21 L207.613281,21 L207.613281,3.9140625 L205.023438,3.9140625 L205.023438,21 Z M210.988281,21 L213.4375,21 L213.4375,13.7578125 C213.4375,12.9062457 213.667966,12.2578147 214.128906,11.8125 C214.582034,11.3593727 215.160153,11.1328125 215.863281,11.1328125 C216.56641,11.1328125 217.140623,11.3593727 217.585938,11.8125 C218.039065,12.2578147 218.265625,12.9062457 218.265625,13.7578125 L218.265625,21 L220.714844,21 L220.714844,12.9140625 C220.675781,11.5234305 220.242192,10.4687536 219.414062,9.75 C218.578121,9.03905895 217.656255,8.68359375 216.648438,8.68359375 C215.343743,8.68359375 214.289067,9.1640577 213.484375,10.125 L213.4375,10.125 L213.4375,8.8359375 L210.988281,8.8359375 L210.988281,21 Z M231.027344,17.4257812 C230.410153,18.2539104 229.585943,18.6757812 228.554688,18.6914062 C226.476552,18.7304689 225.421875,17.4765752 225.390625,14.9296875 C225.421875,12.3671747 226.476552,11.1015623 228.554688,11.1328125 C229.585943,11.1640627 230.410153,11.5898396 231.027344,12.4101562 L232.832031,10.8046875 C232.300779,10.1640593 231.675785,9.65234566 230.957031,9.26953125 C230.238278,8.89452938 229.406255,8.69921883 228.460938,8.68359375 C227.02343,8.66796867 225.761724,9.14843262 224.675781,10.125 C223.550776,11.1171925 222.972656,12.7187389 222.941406,14.9296875 C222.972656,17.1171984 223.550776,18.6992139 224.675781,19.6757812 C225.761724,20.6523486 227.02343,21.140625 228.460938,21.140625 C229.406255,21.1249999 230.238278,20.9179707 230.957031,20.5195312 C231.675785,20.1367168 232.300779,19.640628 232.832031,19.03125 L231.027344,17.4257812 Z" id="CCS-Inc" fill="#9B9B9B" sketch:type="MSShapeGroup"></path>
        </g>
    </g>
</svg>